<?xml version="1.0" encoding="iso-8859-1"?>
<!-- Generator: Adobe Illustrator 19.0.0, SVG Export Plug-In . SVG Version: 6.00 Build 0)  -->
<svg version="1.1" id="Capa_1" xmlns="http://www.w3.org/2000/svg" xmlns:xlink="http://www.w3.org/1999/xlink" x="0px" y="0px"
	 viewBox="0 0 460 460" style="enable-background:new 0 0 460 460;" xml:space="preserve">
<g>
	<polygon style="fill:#1398AD;" points="244.06,0 176.92,0 176.92,40 204.06,40 204.06,120 244.06,120 	"/>
	<polygon style="fill:#3FC3D8;" points="95.98,40 123.12,40 123.12,0 55.98,0 55.98,120 95.98,120 	"/>
	<path style="fill:#0B389C;" d="M334.021,177.56V338c0,45.215-36.785,82-82,82s-82-36.785-82-82v-44.567
		c47.832-9.354,84.039-51.582,84.039-102.103V120h-60v71.33c0,24.28-19.75,44.04-44.04,44.04v60c-6.84,0-13.524-0.671-19.999-1.937
		V338c0,67.271,54.729,122,122,122s122-54.729,122-122V177.559c-6.26,2.22-12.989,3.441-20.001,3.441
		C347.009,181,340.281,179.78,334.021,177.56z"/>
	<path style="fill:#3FC3D8;" d="M354.02,141c-11.028,0-19.999-8.972-19.999-20c0-11.028,8.971-20,19.999-20V61
		c-33.084,0-59.999,26.916-59.999,60c0,26.073,16.722,48.304,40,56.56c6.26,2.22,12.988,3.44,19.999,3.44V141z"/>
	<path style="fill:#1398AD;" d="M414.02,121c0-33.084-26.916-60-60-60v40c11.028,0,20,8.972,20,20c0,11.028-8.973,20-20,20v40
		c7.012,0,13.741-1.22,20.001-3.441C397.299,169.303,414.02,147.072,414.02,121z"/>
	<path style="fill:#6BE0F4;" d="M334.021,121c0,11.028,8.971,20,19.999,20c11.028,0,20-8.972,20-20c0-11.028-8.973-20-20-20
		C342.992,101,334.021,109.972,334.021,121z"/>
	<path style="fill:#4370D9;" d="M150.02,235.37c-24.29,0-44.04-19.76-44.04-44.04V120h-60v71.33
		c0,50.522,36.208,92.751,84.041,102.103c6.475,1.266,13.159,1.937,19.999,1.937V235.37z"/>
</g>
<g>
</g>
<g>
</g>
<g>
</g>
<g>
</g>
<g>
</g>
<g>
</g>
<g>
</g>
<g>
</g>
<g>
</g>
<g>
</g>
<g>
</g>
<g>
</g>
<g>
</g>
<g>
</g>
<g>
</g>
</svg>
